<svg width="87" height="84" viewBox="0 0 87 84" fill="none" xmlns="http://www.w3.org/2000/svg">
<path d="M30.1504 63.5596C32.0223 63.5596 33.7146 63.9794 35.2266 64.8193C36.7384 65.6353 37.9261 66.8117 38.79 68.3477C39.678 69.8837 40.1221 71.6719 40.1221 73.7119C40.122 75.7517 39.6658 77.5514 38.7539 79.1113C37.8659 80.6473 36.6542 81.8358 35.1182 82.6758C33.5822 83.5158 31.8778 83.9355 30.0059 83.9355C28.158 83.9355 26.4778 83.5157 24.9658 82.6758C23.4779 81.8358 22.3025 80.6473 21.4385 79.1113C20.5985 77.5514 20.1778 75.7518 20.1777 73.7119C20.1777 71.6961 20.6098 69.9197 21.4736 68.3838C22.3616 66.8238 23.5622 65.6353 25.0742 64.8193C26.5862 63.9794 28.2785 63.5596 30.1504 63.5596ZM59.4971 38.8438C58.0572 38.8438 57.0375 39.132 56.4375 39.708C55.8616 40.26 55.5733 41.1836 55.5732 42.4795V43.8838H59.7129V46.584H55.5732V63.6113H53.1416C54.4238 63.7363 55.5652 64.0907 56.5654 64.6758C57.8373 65.4197 58.7852 66.3555 59.4092 67.4834V63.8838H62.7217V83.6113H59.4092V79.9395C58.7612 81.0914 57.7892 82.0513 56.4932 82.8193C55.2212 83.5633 53.7332 83.9355 52.0293 83.9355C50.2774 83.9355 48.6933 83.5036 47.2773 82.6396C45.8615 81.7757 44.7457 80.5637 43.9297 79.0039C43.1137 77.444 42.7051 75.6677 42.7051 73.6758C42.7051 71.6598 43.1137 69.8958 43.9297 68.3838C44.7457 66.8478 45.8613 65.6593 47.2773 64.8193C48.7173 63.9793 50.3134 63.5596 52.0654 63.5596C52.143 63.5596 52.2202 63.56 52.2969 63.5615V46.584H49.7412V43.8838H52.2969V42.4795C52.2969 40.2715 52.8613 38.6633 53.9893 37.6553C55.1412 36.6234 56.9773 36.1075 59.4971 36.1074V38.8438ZM86.5498 83.6113H83.2373V79.9033C82.5893 81.0793 81.6294 82.0513 80.3574 82.8193C79.0854 83.5633 77.5975 83.9355 75.8936 83.9355C74.1416 83.9355 72.5455 83.5036 71.1055 82.6396C69.6896 81.7757 68.5738 80.5637 67.7578 79.0039C66.9418 77.444 66.5332 75.6677 66.5332 73.6758C66.5332 71.6598 66.9418 69.8958 67.7578 68.3838C68.5738 66.8478 69.6895 65.6593 71.1055 64.8193C72.5455 63.9793 74.1537 63.5596 75.9297 63.5596C77.4656 63.5596 78.8939 63.9197 80.2139 64.6396C81.5336 65.3355 82.5414 66.2594 83.2373 67.4111V56.9717H86.5498V83.6113ZM14.9688 38.1953C17.3205 38.1954 19.2406 38.784 20.7285 39.96C22.2403 41.1359 23.0922 42.6958 23.2842 44.6396H19.6846C19.5646 43.6796 19.0599 42.8391 18.1719 42.1191C17.284 41.3754 16.1082 41.0039 14.6445 41.0039C13.2765 41.0039 12.1599 41.364 11.2959 42.084C10.4323 42.7799 10.0001 43.7636 10 45.0352C10 45.947 10.252 46.6916 10.7559 47.2676C11.2838 47.8435 11.9201 48.2876 12.6641 48.5996C13.432 48.8876 14.5002 49.2234 15.8682 49.6074C17.5242 50.0634 18.8563 50.5196 19.8643 50.9756C20.8722 51.4075 21.7361 52.0915 22.4561 53.0273C23.176 53.9393 23.5361 55.1875 23.5361 56.7715C23.5361 57.9954 23.2124 59.1476 22.5645 60.2275C21.9165 61.3075 20.9564 62.1835 19.6846 62.8555C18.7574 63.3453 17.7086 63.6553 16.5391 63.7881C16.7196 64.4486 16.8115 65.152 16.8115 65.8994C16.8115 67.6274 16.3078 69.1517 15.2998 70.4717C14.3158 71.7916 12.8278 72.6676 10.8359 73.0996L17.1357 83.6113H13.2119L7.23535 73.3516H3.27539V83.6113H0V58.5195H6.7207C6.58981 58.0111 6.51768 57.4769 6.50781 56.916H10C10.0675 57.5775 10.2495 58.1819 10.5449 58.7295C11.4119 58.8906 12.193 59.1439 12.8877 59.4912C13.7664 59.9226 14.4952 60.4564 15.0762 61.0898C15.112 61.0902 15.1483 61.0918 15.1846 61.0918C16.7444 61.0917 17.9685 60.7074 18.8564 59.9395C19.7682 59.1476 20.2245 58.1397 20.2246 56.916C20.2246 55.956 19.9606 55.1752 19.4326 54.5752C18.9046 53.9752 18.2441 53.52 17.4521 53.208C16.6601 52.896 15.592 52.5592 14.248 52.1992C12.5922 51.7672 11.2599 51.3353 10.252 50.9033C9.26814 50.4713 8.41619 49.7995 7.69629 48.8877C7.00029 47.9517 6.65234 46.7036 6.65234 45.1436C6.65235 43.7756 7.00036 42.5638 7.69629 41.5078C8.39229 40.4518 9.3643 39.6356 10.6123 39.0596C11.8843 38.4836 13.3368 38.1953 14.9688 38.1953ZM30.1143 66.4033C28.9143 66.4033 27.8098 66.6794 26.8018 67.2314C25.8179 67.7594 25.0257 68.5758 24.4258 69.6797C23.8259 70.7836 23.5264 72.128 23.5264 73.7119C23.5264 75.3196 23.8138 76.6754 24.3896 77.7793C24.9896 78.8832 25.7818 79.7117 26.7656 80.2637C27.7496 80.7916 28.83 81.0556 30.0059 81.0557C31.1819 81.0557 32.2864 80.7795 33.3184 80.2275C34.3503 79.6755 35.1778 78.8471 35.8018 77.7432C36.4496 76.6393 36.7744 75.2957 36.7744 73.7119C36.7744 72.1279 36.4619 70.7837 35.8379 69.6797C35.2139 68.5757 34.3976 67.7594 33.3896 67.2314C32.3818 66.6796 31.29 66.4033 30.1143 66.4033ZM52.7139 66.4033C51.4899 66.4033 50.3732 66.6916 49.3652 67.2676C48.3574 67.8435 47.5531 68.6833 46.9531 69.7871C46.3531 70.8911 46.0537 72.1878 46.0537 73.6758C46.0537 75.1877 46.3532 76.5078 46.9531 77.6357C47.5531 78.7397 48.3573 79.5914 49.3652 80.1914C50.3732 80.7674 51.4899 81.0557 52.7139 81.0557C53.9377 81.0556 55.0536 80.7673 56.0615 80.1914C57.0935 79.5914 57.9098 78.7397 58.5098 77.6357C59.1097 76.5078 59.4091 75.1998 59.4092 73.7119C59.4092 72.2239 59.1098 70.9272 58.5098 69.8232C57.9098 68.7193 57.0934 67.8797 56.0615 67.3037C55.0536 66.7038 53.9377 66.4034 52.7139 66.4033ZM76.542 66.4033C75.318 66.4033 74.2014 66.6916 73.1934 67.2676C72.1855 67.8435 71.3812 68.6833 70.7812 69.7871C70.1813 70.8911 69.8818 72.1878 69.8818 73.6758C69.8819 75.1877 70.1813 76.5078 70.7812 77.6357C71.3812 78.7397 72.1855 79.5914 73.1934 80.1914C74.2014 80.7674 75.318 81.0557 76.542 81.0557C77.7658 81.0556 78.8818 80.7673 79.8896 80.1914C80.9216 79.5914 81.7379 78.7397 82.3379 77.6357C82.9378 76.5078 83.2373 75.1998 83.2373 73.7119C83.2373 72.2239 82.9379 70.9272 82.3379 69.8232C81.7379 68.7193 80.9216 67.8797 79.8896 67.3037C78.8818 66.7038 77.7658 66.4034 76.542 66.4033ZM3.27539 70.7236H8.09961C9.87554 70.7236 11.2077 70.2917 12.0957 69.4277C12.9837 68.5397 13.4277 67.3634 13.4277 65.8994C13.4277 65.0476 13.2813 64.3064 12.9902 63.6748C12.1856 63.5316 11.4287 63.3089 10.7207 63C9.71913 62.5363 8.88283 61.9424 8.21094 61.2207C8.17408 61.2204 8.13687 61.2197 8.09961 61.2197H3.27539V70.7236ZM35.9932 43.5596C37.7212 43.5596 39.2212 43.9318 40.4932 44.6758C41.765 45.4197 42.7129 46.3555 43.3369 47.4834V43.8838H46.6494V63.6113H43.3369V59.9395C42.6889 61.0914 41.7169 62.0513 40.4209 62.8193C39.1489 63.5633 37.661 63.9355 35.957 63.9355C34.2051 63.9355 32.621 63.5036 31.2051 62.6396C29.7892 61.7757 28.6734 60.5637 27.8574 59.0039C27.0415 57.444 26.6328 55.6677 26.6328 53.6758C26.6328 51.6598 27.0414 49.8958 27.8574 48.3838C28.6734 46.8478 29.7891 45.6593 31.2051 44.8193C32.6451 43.9793 34.2412 43.5596 35.9932 43.5596ZM71.5654 43.5596C73.4372 43.5596 75.0933 43.9673 76.5332 44.7832C77.9732 45.5992 79.0767 46.728 79.8447 48.168C80.6366 49.5838 81.0331 51.1914 81.0332 52.9912C81.0332 53.6152 80.9968 54.2757 80.9248 54.9717H65.1572C65.2772 56.9156 65.9367 58.44 67.1367 59.5439C68.3607 60.6239 69.8374 61.1641 71.5654 61.1641C72.9812 61.164 74.1569 60.8393 75.0928 60.1914C76.0528 59.5194 76.7254 58.6313 77.1094 57.5273H80.6367C80.1087 59.4233 79.0527 60.9719 77.4688 62.1719C75.8849 63.3477 73.9171 63.9355 71.5654 63.9355C69.6936 63.9355 68.0133 63.5156 66.5254 62.6758C65.0614 61.8358 63.9093 60.6473 63.0693 59.1113C62.2294 57.5514 61.8086 55.7518 61.8086 53.7119C61.8086 51.6719 62.2172 49.8837 63.0332 48.3477C63.8492 46.8117 64.9891 45.6353 66.4531 44.8193C67.9411 43.9794 69.6455 43.5596 71.5654 43.5596ZM36.6416 46.4033C35.4176 46.4033 34.301 46.6916 33.293 47.2676C32.2851 47.8435 31.4808 48.6833 30.8809 49.7871C30.2809 50.8911 29.9814 52.1878 29.9814 53.6758C29.9815 55.1877 30.2809 56.5078 30.8809 57.6357C31.4808 58.7397 32.2851 59.5914 33.293 60.1914C34.301 60.7674 35.4176 61.0557 36.6416 61.0557C37.8654 61.0556 38.9814 60.7673 39.9893 60.1914C41.0212 59.5914 41.8375 58.7397 42.4375 57.6357C43.0375 56.5078 43.3369 55.1998 43.3369 53.7119C43.3369 52.2239 43.0375 50.9272 42.4375 49.8232C41.8375 48.7193 41.0212 47.8797 39.9893 47.3037C38.9814 46.7038 37.8654 46.4034 36.6416 46.4033ZM71.4209 46.332C69.7649 46.332 68.3488 46.86 67.1729 47.916C66.021 48.972 65.3613 50.4358 65.1934 52.3076H77.6494C77.6494 51.0597 77.3732 49.9915 76.8213 49.1035C76.2693 48.1915 75.5127 47.5078 74.5527 47.0518C73.6168 46.5718 72.5729 46.332 71.4209 46.332ZM27.6387 33.165C27.6519 33.1676 27.6615 33.1783 27.666 33.1963L27.6953 33.9316L27.6885 33.9609L27.667 33.9883L27.4883 34.1152L27.4678 34.1221L27.4414 34.1152L27.2627 33.9883L27.2451 33.9658L27.2373 33.9316L27.2666 33.1943L27.2734 33.1768C27.2826 33.1657 27.2963 33.1625 27.3145 33.167L27.4365 33.2285L27.4609 33.2354L27.4951 33.2285L27.6172 33.168L27.6387 33.165ZM26.8613 32.9736L27.1787 33.1318L27.1953 33.1494L27.2012 33.1699L27.1699 33.9102L27.165 33.9297L27.1475 33.9434L26.8008 34.1035L26.7754 34.1064C26.7571 34.0995 26.7472 34.086 26.7461 34.0654L26.8047 33.0078L26.8154 32.9844C26.8203 32.9772 26.8275 32.9717 26.8359 32.9697C26.8444 32.968 26.8539 32.9692 26.8613 32.9736ZM28.0928 32.9707C28.1096 32.9742 28.1212 32.9864 28.127 33.0078L28.1855 34.0654L28.1787 34.0898C28.1673 34.1045 28.1504 34.1091 28.1289 34.1035L27.7832 33.9453L27.7695 33.9316L27.7607 33.9102L27.7295 33.1699L27.7344 33.1514L27.752 33.1338L28.0684 32.9736L28.0928 32.9707ZM33.0977 0C34.0567 0.000162828 34.9976 0.267303 35.8135 0.771484C36.6292 1.27577 37.2887 1.99771 37.7178 2.85547L40.1045 7.62695C40.5245 7.45479 40.9384 7.26903 41.3447 7.06934C41.7534 6.86533 42.2269 6.83192 42.6602 6.97656C43.0933 7.12133 43.4522 7.4322 43.6562 7.84082C43.8602 8.24947 43.8936 8.72301 43.749 9.15625C43.6044 9.58932 43.2931 9.94714 42.8848 10.1514C42.4709 10.3355 42.054 10.5155 41.6357 10.6895L43.291 14.001C43.6501 14.7189 43.8371 15.5108 43.8369 16.3135V20.666C43.8368 21.3926 43.6833 22.1111 43.3867 22.7744C43.09 23.4379 42.6559 24.0321 42.1143 24.5166V26.6934C42.1142 27.3781 41.8425 28.0352 41.3584 28.5195C40.8741 29.0039 40.2162 29.2762 39.5312 29.2764C38.8463 29.2763 38.1895 29.0037 37.7051 28.5195C37.2207 28.0352 36.9483 27.3784 36.9482 26.6934V25.832H16.2822V26.6934C16.2821 27.3783 16.0096 28.0352 15.5254 28.5195C15.0411 29.0038 14.3841 29.2762 13.6992 29.2764C13.0142 29.2764 12.3565 29.0038 11.8721 28.5195C11.3879 28.0352 11.1163 27.3782 11.1162 26.6934V24.5166C10.0589 23.5695 9.39369 22.1951 9.39355 20.666V16.3115C9.39394 15.5101 9.58095 14.7197 9.93945 14.0029L11.5811 10.7168C11.1656 10.5423 10.7548 10.3542 10.3496 10.1533C9.94298 9.94652 9.63326 9.58782 9.48828 9.15527C9.34356 8.72287 9.37441 8.2507 9.57422 7.84082C9.67519 7.63849 9.81562 7.45787 9.98633 7.30957C10.1571 7.16131 10.3558 7.0472 10.5703 6.97559C10.7848 6.90407 11.0118 6.87563 11.2373 6.8916C11.4629 6.90764 11.6835 6.96821 11.8857 7.06934C12.2932 7.27017 12.7071 7.45594 13.126 7.62695L15.5127 2.85645C15.9416 1.99845 16.6012 1.27697 17.417 0.772461C18.2329 0.26802 19.1735 0.00024467 20.1328 0H33.0977ZM69.7881 14.7207C70.5323 14.7208 71.238 15.0531 71.7129 15.626V15.625C71.7134 15.6258 71.7146 15.6282 71.7168 15.6309C71.7218 15.6368 71.7308 15.6475 71.7432 15.6621C71.7683 15.6918 71.8089 15.7385 71.8623 15.7998C71.9698 15.9231 72.1315 16.1047 72.3359 16.3242C72.7484 16.7672 73.3229 17.3515 73.9775 17.9268C74.6408 18.5096 75.3341 19.0374 75.9844 19.4072C76.6714 19.7978 77.095 19.8877 77.2715 19.8877C78.6517 19.8882 79.7714 21.0074 79.7715 22.3877C79.7714 23.768 78.6517 24.8872 77.2715 24.8877C75.8451 24.8877 74.5299 24.3317 73.5137 23.7539C72.4607 23.1552 71.4829 22.391 70.6768 21.6826C70.3476 21.3934 70.0393 21.1033 69.7549 20.8281C69.4306 21.1243 69.0735 21.4384 68.6855 21.751C66.9917 23.1157 64.2769 24.8874 61.2383 24.8877C58.1147 24.8877 55.6398 23.0365 54.1553 21.6016C54.0163 21.4673 53.8833 21.332 53.7549 21.1992C53.6265 21.3319 53.4934 21.4673 53.3545 21.6016C51.8701 23.0365 49.3959 24.8875 46.2725 24.8877C44.8918 24.8877 43.7726 23.7683 43.7725 22.3877C43.7726 21.0071 44.8918 19.8877 46.2725 19.8877C47.4247 19.8875 48.6922 19.1549 49.8799 18.0068C50.4327 17.4724 50.8831 16.9291 51.1953 16.5176C51.3498 16.314 51.4674 16.1468 51.542 16.0371C51.5789 15.9828 51.605 15.9422 51.6201 15.9189C51.6247 15.9119 51.6284 15.9062 51.6309 15.9023C52.0869 15.168 52.8904 14.7208 53.7549 14.7207C54.6188 14.7209 55.4218 15.1678 55.8779 15.9014V15.9004L55.877 15.8984L55.876 15.8975C55.8779 15.9006 55.8826 15.9081 55.8896 15.9189C55.9048 15.9423 55.9318 15.9828 55.9688 16.0371C56.0434 16.1469 56.16 16.314 56.3145 16.5176C56.6267 16.9292 57.0779 17.4723 57.6309 18.0068C58.8186 19.1548 60.086 19.8877 61.2383 19.8877C62.4753 19.8873 64.0361 19.0754 65.5479 17.8574C66.2479 17.2933 66.8391 16.7228 67.2549 16.292C67.4612 16.0783 67.6211 15.902 67.7256 15.7842C67.7775 15.7256 67.8158 15.6813 67.8389 15.6543C67.8503 15.641 67.8585 15.6315 67.8623 15.627C67.8636 15.6255 67.8649 15.6244 67.8652 15.624C68.3401 15.0524 69.0448 14.7208 69.7881 14.7207ZM18.8652 15.499C18.1804 15.4991 17.5234 15.7716 17.0391 16.2559C16.5547 16.7402 16.2823 17.397 16.2822 18.082C16.2822 18.7671 16.5546 19.4247 17.0391 19.9092C17.5234 20.3933 18.1804 20.6659 18.8652 20.666C19.5502 20.6659 20.208 20.3935 20.6924 19.9092C21.1767 19.4248 21.4492 18.767 21.4492 18.082C21.4491 17.3972 21.1765 16.7402 20.6924 16.2559C20.208 15.7715 19.5502 15.4991 18.8652 15.499ZM34.3652 15.499C33.6802 15.499 33.0225 15.7716 32.5381 16.2559C32.0538 16.7402 31.7813 17.3971 31.7812 18.082C31.7812 18.7671 32.0536 19.4247 32.5381 19.9092C33.0225 20.3935 33.6802 20.666 34.3652 20.666C35.05 20.6658 35.7072 20.3933 36.1914 19.9092C36.6757 19.4248 36.9482 18.767 36.9482 18.082C36.9482 17.3971 36.6756 16.7402 36.1914 16.2559C35.7071 15.7716 35.0501 15.4992 34.3652 15.499ZM69.7881 2.66602C70.5326 2.66608 71.238 2.99888 71.7129 3.57227C71.7137 3.57299 71.7156 3.57386 71.7168 3.5752C71.7217 3.58108 71.7309 3.59203 71.7432 3.60645C71.7684 3.63614 71.8088 3.68373 71.8623 3.74512C71.9699 3.86847 72.1315 4.04993 72.3359 4.26953C72.7484 4.71248 73.3229 5.29582 73.9775 5.87109C74.6408 6.45394 75.3341 6.98174 75.9844 7.35156C76.6714 7.74218 77.095 7.83203 77.2715 7.83203C78.6516 7.83251 79.7711 8.95191 79.7715 10.332C79.7715 11.7124 78.6518 12.8316 77.2715 12.832C75.845 12.832 74.53 12.2761 73.5137 11.6982C72.4607 11.0995 71.483 10.3354 70.6768 9.62695C70.3478 9.33787 70.0392 9.04847 69.7549 8.77344C69.4306 9.06964 69.0735 9.38371 68.6855 9.69629C66.9917 11.061 64.2769 12.8317 61.2383 12.832C58.1147 12.832 55.6398 10.9818 54.1553 9.54688C54.0163 9.41258 53.8833 9.27727 53.7549 9.14453C53.6266 9.27717 53.4933 9.41268 53.3545 9.54688C51.87 10.9818 49.3957 12.8318 46.2725 12.832C44.8918 12.832 43.7725 11.7127 43.7725 10.332C43.7728 8.95161 44.892 7.83203 46.2725 7.83203C47.4247 7.83183 48.6923 7.10013 49.8799 5.95215C50.4328 5.41759 50.8831 4.87349 51.1953 4.46191C51.3497 4.25837 51.4674 4.0921 51.542 3.98242C51.5789 3.92816 51.605 3.88757 51.6201 3.86426L51.6348 3.8418C52.0914 3.11086 52.8927 2.66612 53.7549 2.66602C54.6192 2.66618 55.4219 3.1135 55.8779 3.84766L55.8896 3.86426C55.9048 3.88763 55.9317 3.92797 55.9688 3.98242C56.0433 4.09209 56.1602 4.25852 56.3145 4.46191C56.6267 4.87353 57.0779 5.4176 57.6309 5.95215C58.8185 7.10004 60.0861 7.83203 61.2383 7.83203C62.4752 7.83166 64.0361 7.02067 65.5479 5.80273C66.2478 5.23873 66.8391 4.66805 67.2549 4.2373C67.4612 4.02358 67.6211 3.84735 67.7256 3.72949C67.7774 3.67098 67.8158 3.62665 67.8389 3.59961C67.8502 3.58638 67.8584 3.57689 67.8623 3.57227L67.8633 3.57129C68.3382 2.99827 69.0438 2.66609 69.7881 2.66602ZM20.1328 3.44434C19.8496 3.44434 19.5701 3.51394 19.3203 3.64746C19.0706 3.78105 18.8574 3.97445 18.7002 4.20996L18.5938 4.39648L16.4062 8.76758C19.0721 9.56661 22.6648 10.333 26.6152 10.333C30.3038 10.333 33.6778 9.66454 36.2764 8.92578L36.8223 8.76758L34.6367 4.39648C34.51 4.14316 34.3229 3.92443 34.0918 3.76074C33.8606 3.5971 33.5916 3.49332 33.3105 3.45801L33.0996 3.44434H20.1328Z" fill="white"/>
</svg>
