<svg width="174" height="90" viewBox="0 0 174 90" fill="none" xmlns="http://www.w3.org/2000/svg">
<path d="M29.4854 68.7812C31.2133 68.7813 32.7134 69.1535 33.9854 69.8975C35.2572 70.6414 36.2052 71.5772 36.8291 72.7051V69.1055H40.1416V88.833H36.8291V85.1611C36.1811 86.3131 35.209 87.273 33.9131 88.041C32.6411 88.785 31.1532 89.1572 29.4492 89.1572C27.6973 89.1572 26.1132 88.7252 24.6973 87.8613C23.2813 86.9973 22.1656 85.7846 21.3496 84.2246C20.5337 82.6648 20.1251 80.8892 20.125 78.8975C20.125 76.8815 20.5337 75.1174 21.3496 73.6055C22.1656 72.0695 23.2813 70.881 24.6973 70.041C26.1372 69.201 27.7334 68.7812 29.4854 68.7812ZM65.0566 68.7812C66.9286 68.7812 68.5854 69.1889 70.0254 70.0049C71.4652 70.8208 72.569 71.9489 73.3369 73.3887C74.1289 74.8046 74.5254 76.4129 74.5254 78.2129C74.5254 78.8369 74.489 79.4974 74.417 80.1934H58.6494C58.7695 82.1371 59.4291 83.6607 60.6289 84.7646C61.8528 85.8446 63.3288 86.3847 65.0566 86.3848C66.4726 86.3848 67.649 86.0611 68.585 85.4131C69.5449 84.7411 70.2166 83.853 70.6006 82.749H74.1289C73.6009 84.6449 72.5448 86.1926 70.9609 87.3926C69.3769 88.5686 67.4086 89.1572 65.0566 89.1572C63.1848 89.1572 61.5045 88.7374 60.0166 87.8975C58.5526 87.0575 57.4005 85.869 56.5605 84.333C55.7206 82.773 55.3008 80.9725 55.3008 78.9326C55.3008 76.8928 55.7095 75.1052 56.5254 73.5693C57.3414 72.0333 58.4813 70.857 59.9453 70.041C61.4332 69.2012 63.1369 68.7813 65.0566 68.7812ZM117.597 68.7812C119.469 68.7812 121.161 69.2011 122.673 70.041C124.185 70.857 125.373 72.0333 126.237 73.5693C127.125 75.1052 127.569 76.8929 127.569 78.9326C127.569 80.9726 127.113 82.773 126.201 84.333C125.313 85.869 124.101 87.0575 122.565 87.8975C121.029 88.7375 119.325 89.1572 117.453 89.1572C115.605 89.1572 113.925 88.7374 112.413 87.8975C110.925 87.0575 109.749 85.869 108.885 84.333C108.045 82.773 107.625 80.9725 107.625 78.9326C107.625 76.917 108.057 75.1413 108.921 73.6055C109.809 72.0455 111.009 70.857 112.521 70.041C114.033 69.2012 115.725 68.7813 117.597 68.7812ZM139.513 68.7812C141.241 68.7813 142.741 69.1535 144.013 69.8975C145.285 70.6414 146.232 71.5772 146.856 72.7051V69.1055H150.169V88.833H146.856V85.1611C146.208 86.3131 145.236 87.273 143.94 88.041C142.668 88.785 141.181 89.1572 139.477 89.1572C137.725 89.1572 136.141 88.7252 134.725 87.8613C133.309 86.9973 132.193 85.7846 131.377 84.2246C130.561 82.6648 130.152 80.8892 130.152 78.8975C130.152 76.8815 130.561 75.1174 131.377 73.6055C132.193 72.0695 133.309 70.881 134.725 70.041C136.165 69.201 137.761 68.7812 139.513 68.7812ZM173.997 88.833H170.685V85.125C170.037 86.301 169.077 87.273 167.805 88.041C166.533 88.785 165.045 89.1572 163.341 89.1572C161.589 89.1572 159.993 88.7252 158.553 87.8613C157.137 86.9973 156.021 85.7846 155.205 84.2246C154.389 82.6648 153.981 80.8892 153.98 78.8975C153.98 76.8815 154.389 75.1174 155.205 73.6055C156.021 72.0695 157.137 70.881 158.553 70.041C159.993 69.201 161.601 68.7812 163.377 68.7812C164.913 68.7813 166.34 69.1415 167.66 69.8613C168.98 70.5573 169.989 71.4809 170.685 72.6328V62.1934H173.997V88.833ZM8.45996 63.417C10.812 63.417 12.7327 64.0047 14.2207 65.1807C15.7326 66.3567 16.5844 67.9174 16.7764 69.8613H13.1758C13.0558 68.9013 12.5521 68.0608 11.6641 67.3408C10.7762 66.597 9.60039 66.2247 8.13672 66.2246C6.76875 66.2246 5.65208 66.5847 4.78809 67.3047C3.92412 68.0007 3.49223 68.9849 3.49219 70.2568C3.49219 71.1688 3.74405 71.9133 4.24805 72.4893C4.77604 73.0652 5.41227 73.5093 6.15625 73.8213C6.92424 74.1093 7.99241 74.4451 9.36035 74.8291C11.0163 75.2851 12.3485 75.7413 13.3564 76.1973C14.3643 76.6293 15.2283 77.3131 15.9482 78.249C16.6682 79.161 17.0283 80.4092 17.0283 81.9932C17.0283 83.2171 16.7046 84.3693 16.0566 85.4492C15.4086 86.5292 14.4478 87.4052 13.1758 88.0771C11.9039 88.749 10.4036 89.085 8.67578 89.085C7.01997 89.0849 5.53179 88.7966 4.21191 88.2207C2.91624 87.6208 1.89625 86.8052 1.15234 85.7734C0.408344 84.7174 0.024 83.5047 0 82.1367H3.49219C3.61219 83.3127 4.09262 84.309 4.93262 85.125C5.79653 85.9168 7.04413 86.3134 8.67578 86.3135C10.2358 86.3135 11.4606 85.9291 12.3486 85.1611C13.2605 84.3692 13.7158 83.3606 13.7158 82.1367C13.7158 81.1768 13.4518 80.3968 12.9238 79.7969C12.3959 79.197 11.7362 78.7407 10.9443 78.4287C10.1523 78.1167 9.08422 77.7809 7.74023 77.4209C6.08425 76.9889 4.75213 76.557 3.74414 76.125C2.7603 75.6931 1.9084 75.0212 1.18848 74.1094C0.49251 73.1734 0.144565 71.9251 0.144531 70.3652C0.144531 68.9973 0.492578 67.7854 1.18848 66.7295C1.88448 65.6735 2.85649 64.8572 4.10449 64.2812C5.37639 63.7053 6.82812 63.417 8.45996 63.417ZM52.9893 64.0654C51.5496 64.0654 50.5297 64.3529 49.9297 64.9287C49.3537 65.4807 49.0654 66.4052 49.0654 67.7012V69.1055H53.2051V71.8047H49.0654V88.833H45.7891V71.8047H43.2334V69.1055H45.7891V67.7012C45.7891 65.4932 46.3534 63.885 47.4814 62.877C48.6334 61.845 50.4694 61.3291 52.9893 61.3291V64.0654ZM95.5469 63.7412C97.4428 63.7412 99.039 64.0649 100.335 64.7129C101.655 65.3609 102.639 66.2368 103.287 67.3408C103.935 68.4448 104.259 69.7051 104.259 71.1211C104.259 72.8491 103.755 74.3734 102.747 75.6934C101.763 77.0132 100.275 77.8893 98.2832 78.3213L104.583 88.833H100.659L94.6826 78.5732H90.7227V88.833H87.4473V63.7412H95.5469ZM30.1328 71.625C28.9089 71.6251 27.7931 71.9133 26.7852 72.4893C25.7772 73.0652 24.973 73.9049 24.373 75.0088C23.773 76.1128 23.4736 77.4095 23.4736 78.8975C23.4737 80.4093 23.7731 81.7295 24.373 82.8574C24.973 83.9613 25.7772 84.8131 26.7852 85.4131C27.7931 85.989 28.909 86.2773 30.1328 86.2773C31.3568 86.2773 32.4734 85.9891 33.4814 85.4131C34.5132 84.8132 35.3288 83.9611 35.9287 82.8574C36.5287 81.7294 36.8291 80.4206 36.8291 78.9326C36.829 77.4448 36.5287 76.1488 35.9287 75.0449C35.3288 73.9412 34.5132 73.1013 33.4814 72.5254C32.4734 71.9254 31.3568 71.625 30.1328 71.625ZM117.562 71.625C116.362 71.625 115.257 71.9011 114.249 72.4531C113.265 72.9811 112.473 73.7974 111.873 74.9014C111.273 76.0052 110.974 77.3489 110.974 78.9326C110.974 80.5406 111.261 81.897 111.837 83.001C112.437 84.105 113.229 84.9333 114.213 85.4854C115.197 86.0134 116.277 86.2773 117.453 86.2773C118.629 86.2773 119.734 86.0012 120.766 85.4492C121.797 84.8972 122.625 84.0687 123.249 82.9648C123.897 81.8609 124.221 80.5166 124.221 78.9326C124.221 77.3489 123.909 76.0052 123.285 74.9014C122.661 73.7974 121.845 72.9811 120.837 72.4531C119.829 71.9012 118.737 71.6251 117.562 71.625ZM140.16 71.625C138.936 71.6251 137.82 71.9133 136.812 72.4893C135.805 73.0652 135 73.9049 134.4 75.0088C133.8 76.1128 133.501 77.4095 133.501 78.8975C133.501 80.4093 133.8 81.7295 134.4 82.8574C135 83.9613 135.805 84.8131 136.812 85.4131C137.82 85.989 138.936 86.2773 140.16 86.2773C141.384 86.2773 142.501 85.9891 143.509 85.4131C144.541 84.8132 145.356 83.9611 145.956 82.8574C146.556 81.7294 146.856 80.4206 146.856 78.9326C146.856 77.4448 146.556 76.1488 145.956 75.0449C145.356 73.9412 144.541 73.1013 143.509 72.5254C142.501 71.9254 141.384 71.625 140.16 71.625ZM163.988 71.625C162.764 71.6251 161.649 71.9133 160.641 72.4893C159.633 73.0652 158.828 73.9049 158.229 75.0088C157.629 76.1128 157.329 77.4095 157.329 78.8975C157.329 80.4093 157.629 81.7295 158.229 82.8574C158.829 83.9613 159.633 84.8131 160.641 85.4131C161.649 85.989 162.764 86.2773 163.988 86.2773C165.212 86.2773 166.329 85.9891 167.337 85.4131C168.369 84.8132 169.184 83.9611 169.784 82.8574C170.384 81.7294 170.685 80.4206 170.685 78.9326C170.685 77.4448 170.384 76.1488 169.784 75.0449C169.184 73.9412 168.369 73.1013 167.337 72.5254C166.329 71.9254 165.212 71.625 163.988 71.625ZM64.9131 71.5527C63.2572 71.5527 61.841 72.0808 60.665 73.1367C59.513 74.1927 58.8526 75.6573 58.6846 77.5293H71.1406C71.1406 76.2813 70.8645 75.2132 70.3125 74.3252C69.7605 73.4133 69.0048 72.7294 68.0449 72.2734C67.109 71.7935 66.065 71.5528 64.9131 71.5527ZM90.7227 75.9453H95.5469C97.3228 75.9453 98.655 75.5133 99.543 74.6494C100.431 73.7614 100.875 72.5851 100.875 71.1211C100.875 69.6331 100.431 68.481 99.543 67.665C98.679 66.8491 97.3468 66.4414 95.5469 66.4414H90.7227V75.9453ZM62.0127 53.7617C62.035 53.7654 62.0502 53.7819 62.0576 53.8115L62.1045 55.0039L62.0938 55.0518L62.0605 55.0957L61.7695 55.3027L61.7363 55.3135L61.6943 55.3027L61.4043 55.0957L61.376 55.0596L61.3623 55.0039L61.4102 53.8086L61.4209 53.7812C61.4358 53.7626 61.4585 53.7572 61.4883 53.7646L61.6865 53.8652L61.7256 53.876L61.7812 53.8652L61.9795 53.7676L62.0127 53.7617ZM60.7539 53.4521L61.2676 53.709L61.2949 53.7363L61.3037 53.7695L61.2529 54.9707L61.2451 55.001L61.2168 55.0234L60.6562 55.2832L60.6143 55.2891C60.5845 55.2779 60.5683 55.2552 60.5664 55.2217L60.6611 53.5078L60.6787 53.4688C60.6867 53.4568 60.6988 53.4484 60.7129 53.4453C60.7269 53.4422 60.7416 53.4447 60.7539 53.4521ZM62.75 53.4463C62.7778 53.452 62.7964 53.4726 62.8057 53.5078L62.9004 55.2217L62.8896 55.2607C62.8711 55.2849 62.8438 55.2924 62.8086 55.2832L62.2471 55.0264L62.2246 55.0039L62.2109 54.9707L62.1611 53.7695L62.1689 53.7393L62.1973 53.7109L62.7109 53.4521L62.75 53.4463ZM70.8623 0C72.4174 5.28389e-05 73.9418 0.432558 75.2646 1.25C76.5875 2.06746 77.6569 3.23719 78.3525 4.62793L82.2217 12.3643C82.9028 12.0851 83.5726 11.7828 84.2314 11.459C84.8941 11.1281 85.6617 11.0741 86.3643 11.3086C87.0667 11.5432 87.6476 12.0474 87.9785 12.71C88.3094 13.3726 88.3634 14.1402 88.1289 14.8428C87.8943 15.5452 87.3901 16.1261 86.7275 16.457C86.0565 16.7557 85.3813 17.0452 84.7031 17.3271L87.3857 22.6963C87.968 23.8603 88.2718 25.1438 88.2715 26.4453V33.5C88.2714 34.6782 88.022 35.8434 87.541 36.9189C87.06 37.9944 86.3576 38.9567 85.4795 39.7422V43.2705C85.4795 44.3811 85.0382 45.4461 84.2529 46.2314C83.4676 47.0168 82.4026 47.458 81.292 47.458C80.1814 47.458 79.1164 47.0168 78.3311 46.2314C77.5457 45.4461 77.1045 44.3811 77.1045 43.2705V41.875H43.6045V43.2705C43.6045 44.3811 43.1632 45.4461 42.3779 46.2314C41.5926 47.0168 40.5276 47.458 39.417 47.458C38.3064 47.458 37.2414 47.0168 36.4561 46.2314C35.6707 45.4461 35.2295 44.3811 35.2295 43.2705V39.7422C33.5155 38.2068 32.4376 35.9789 32.4375 33.5V26.4424C32.438 25.1427 32.7418 23.8605 33.3232 22.6982L35.9834 17.3721C35.3097 17.0892 34.6443 16.7847 33.9873 16.459C33.328 16.1237 32.8268 15.5431 32.5918 14.8418C32.3568 14.1405 32.4063 13.3747 32.7305 12.71C32.8942 12.3817 33.1215 12.0891 33.3984 11.8486C33.6753 11.6082 33.9969 11.4247 34.3447 11.3086C34.6925 11.1925 35.06 11.146 35.4258 11.1719C35.7916 11.1978 36.1495 11.295 36.4775 11.459C37.1382 11.7847 37.808 12.087 38.4873 12.3643L42.3564 4.63086C43.0517 3.23958 44.1205 2.06897 45.4434 1.25098C46.7663 0.432968 48.2913 0.000312064 49.8467 0H70.8623ZM130.34 25.417C131.085 25.417 131.791 25.7487 132.266 26.3223L132.267 26.3232L132.325 26.3936C132.37 26.4468 132.44 26.5285 132.532 26.6338C132.716 26.8449 132.989 27.1515 133.334 27.5215C134.027 28.2653 134.994 29.2502 136.105 30.2266C137.225 31.2106 138.438 32.1389 139.617 32.8096C140.833 33.501 141.795 33.792 142.47 33.792C143.85 33.7921 144.97 34.9113 144.97 36.292C144.969 37.6724 143.85 38.7919 142.47 38.792C140.545 38.792 138.691 38.0349 137.146 37.1562C135.564 36.2568 134.068 35.0918 132.806 33.9824C131.854 33.1461 131.003 32.3137 130.313 31.6016C129.574 32.332 128.646 33.1899 127.577 34.0508C124.888 36.2177 120.846 38.7919 116.479 38.792C112.028 38.792 108.391 36.1385 106.077 33.9014C105.425 33.2707 104.847 32.6414 104.35 32.0615C103.852 32.6415 103.274 33.2705 102.621 33.9014C100.307 36.1384 96.6711 38.7919 92.2197 38.792C90.8392 38.792 89.7201 37.6724 89.7197 36.292C89.7197 34.9113 90.839 33.792 92.2197 33.792C94.6998 33.7919 97.1289 32.2569 99.1465 30.3066C100.114 29.371 100.897 28.4263 101.438 27.7139C101.706 27.36 101.911 27.0685 102.045 26.8711C102.112 26.7726 102.161 26.6973 102.191 26.6504C102.206 26.6272 102.217 26.6105 102.223 26.6016L102.227 26.5967C102.683 25.8629 103.486 25.417 104.35 25.417C105.213 25.4171 106.014 25.8624 106.471 26.5947L106.472 26.5967H106.473L106.474 26.5986C106.474 26.5994 106.475 26.6006 106.476 26.6016C106.481 26.6105 106.493 26.6273 106.508 26.6504C106.538 26.6973 106.587 26.7727 106.654 26.8711C106.789 27.0685 106.993 27.3601 107.262 27.7139C107.802 28.4263 108.585 29.371 109.553 30.3066C111.57 32.2569 113.999 33.792 116.479 33.792C119.044 33.7919 121.933 32.1776 124.44 30.1572C125.638 29.192 126.644 28.2209 127.351 27.4893C127.702 27.125 127.976 26.8238 128.158 26.6182C128.249 26.5156 128.317 26.4363 128.36 26.3857C128.382 26.3607 128.397 26.3427 128.406 26.332C128.411 26.3268 128.414 26.3229 128.415 26.3213L128.414 26.3223C128.889 25.7487 129.595 25.4171 130.34 25.417ZM47.792 25.125C46.6814 25.125 45.6164 25.5663 44.8311 26.3516C44.0458 27.1369 43.6045 28.202 43.6045 29.3125C43.6046 30.423 44.0458 31.4882 44.8311 32.2734C45.6163 33.0586 46.6815 33.5 47.792 33.5C48.9025 33.5 49.9676 33.0586 50.7529 32.2734C51.5382 31.4882 51.9794 30.423 51.9795 29.3125C51.9795 28.202 51.5381 27.1369 50.7529 26.3516C49.9676 25.5663 48.9026 25.125 47.792 25.125ZM72.917 25.125C71.8064 25.125 70.7414 25.5663 69.9561 26.3516C69.1708 27.1369 68.7295 28.202 68.7295 29.3125C68.7296 30.423 69.1708 31.4882 69.9561 32.2734C70.7413 33.0586 71.8065 33.5 72.917 33.5C74.0275 33.5 75.0926 33.0586 75.8779 32.2734C76.6632 31.4882 77.1044 30.423 77.1045 29.3125C77.1045 28.202 76.6631 27.1369 75.8779 26.3516C75.0926 25.5663 74.0276 25.125 72.917 25.125ZM130.34 5.875C131.085 5.87502 131.79 6.2077 132.265 6.78125V6.78027L132.267 6.78125C132.268 6.7835 132.272 6.78826 132.276 6.79395C132.286 6.80591 132.303 6.82539 132.325 6.85156C132.37 6.90477 132.44 6.98649 132.532 7.0918C132.716 7.3029 132.989 7.60947 133.334 7.97949C134.027 8.72324 134.994 9.70825 136.105 10.6846C137.225 11.6687 138.438 12.5979 139.617 13.2686C140.833 13.96 141.795 14.25 142.47 14.25C143.85 14.2501 144.97 15.3693 144.97 16.75C144.97 18.1305 143.85 19.2499 142.47 19.25C140.545 19.25 138.691 18.4929 137.146 17.6143C135.564 16.7148 134.068 15.5498 132.806 14.4404C131.854 13.6041 131.004 12.7718 130.313 12.0596C129.574 12.7901 128.646 13.6479 127.577 14.5088C124.888 16.6757 120.846 19.2499 116.479 19.25C112.028 19.25 108.391 16.5974 106.077 14.3604C105.425 13.7298 104.847 13.1004 104.35 12.5205C103.852 13.1004 103.274 13.7297 102.621 14.3604C100.307 16.5974 96.6708 19.2499 92.2197 19.25C90.8391 19.25 89.7199 18.1306 89.7197 16.75C89.7197 15.3693 90.839 14.25 92.2197 14.25C94.6998 14.2499 97.1289 12.7149 99.1465 10.7646C100.114 9.82904 100.897 8.88525 101.438 8.17285C101.706 7.81877 101.911 7.52659 102.045 7.3291C102.112 7.23085 102.161 7.15627 102.191 7.10938C102.206 7.08633 102.217 7.06958 102.223 7.06055L102.316 6.91992C102.784 6.2667 103.54 5.875 104.35 5.875C105.213 5.87509 106.014 6.32052 106.471 7.05273C106.471 7.05373 106.473 7.05664 106.476 7.06055C106.481 7.06955 106.493 7.08621 106.508 7.10938C106.538 7.15629 106.588 7.23096 106.654 7.3291C106.789 7.52659 106.993 7.81886 107.262 8.17285C107.802 8.88525 108.585 9.82911 109.553 10.7646C111.57 12.7149 113.999 14.25 116.479 14.25C119.044 14.2499 121.933 12.6365 124.44 10.6162C125.638 9.65099 126.644 8.67891 127.351 7.94727C127.702 7.58313 127.976 7.28179 128.158 7.07617C128.249 6.97372 128.317 6.89527 128.36 6.84473C128.382 6.81953 128.397 6.80076 128.406 6.79004C128.41 6.78594 128.413 6.78306 128.414 6.78125C128.889 6.20741 129.595 5.87507 130.34 5.875ZM49.8467 5.58301C49.3872 5.58294 48.9345 5.69638 48.5293 5.91309C48.1243 6.12974 47.7794 6.44318 47.5244 6.8252L47.3506 7.12695L43.8057 14.2119C48.1272 15.5072 53.9505 16.75 60.3545 16.75C66.3342 16.75 71.803 15.6664 76.0156 14.4688L76.9004 14.2119L73.3584 7.12695C73.1529 6.71606 72.8486 6.36208 72.4736 6.09668C72.0987 5.83137 71.6637 5.66262 71.208 5.60547L70.8652 5.58301H49.8467Z" fill="white"/>
</svg>
