<svg width="32" height="39" viewBox="0 0 32 39" fill="none" xmlns="http://www.w3.org/2000/svg">
<path fill-rule="evenodd" clip-rule="evenodd" d="M15.6772 0C13.4201 0 11.2554 0.89663 9.65941 2.49264C8.0634 4.08866 7.16677 6.25331 7.16677 8.51042C7.16677 10.7675 8.0634 12.9322 9.65941 14.5282C11.2554 16.1242 13.4201 17.0208 15.6772 17.0208C17.9343 17.0208 20.0989 16.1242 21.695 14.5282C23.291 12.9322 24.1876 10.7675 24.1876 8.51042C24.1876 6.25331 23.291 4.08866 21.695 2.49264C20.0989 0.89663 17.9343 0 15.6772 0ZM9.85427 8.51042C9.85427 6.96608 10.4678 5.485 11.5598 4.39299C12.6518 3.30098 14.1329 2.6875 15.6772 2.6875C17.2215 2.6875 18.7026 3.30098 19.7946 4.39299C20.8866 5.485 21.5001 6.96608 21.5001 8.51042C21.5001 10.0547 20.8866 11.5358 19.7946 12.6278C18.7026 13.7198 17.2215 14.3333 15.6772 14.3333C14.1329 14.3333 12.6518 13.7198 11.5598 12.6278C10.4678 11.5358 9.85427 10.0547 9.85427 8.51042ZM15.6772 19.7083C11.5331 19.7083 7.71323 20.6507 4.88418 22.2417C2.09635 23.8112 0.000100158 26.187 0.000100158 29.1146V29.2973C-0.00169151 31.3792 -0.0034833 33.9915 2.28806 35.8584C3.41502 36.7757 4.99348 37.4297 7.12556 37.8597C9.26123 38.2933 12.0473 38.5208 15.6772 38.5208C19.3071 38.5208 22.0914 38.2933 24.2306 37.8597C26.3627 37.4297 27.9394 36.7757 29.0681 35.8584C31.3596 33.9915 31.3561 31.3792 31.3543 29.2973V29.1146C31.3543 26.187 29.258 23.8112 26.472 22.2417C23.6411 20.6507 19.8231 19.7083 15.6772 19.7083ZM2.6876 29.1146C2.6876 27.5899 3.80202 25.9344 6.20106 24.5852C8.55889 23.2594 11.9057 22.3958 15.679 22.3958C19.4486 22.3958 22.7955 23.2594 25.1533 24.5852C27.5541 25.9344 28.6668 27.5899 28.6668 29.1146C28.6668 31.4581 28.5951 32.7767 27.3696 33.7729C26.7067 34.314 25.5959 34.8425 23.6967 35.226C21.8029 35.6094 19.2139 35.8333 15.6772 35.8333C12.1404 35.8333 9.54968 35.6094 7.65768 35.226C5.75852 34.8425 4.64768 34.314 3.98477 33.7747C2.75927 32.7767 2.6876 31.4581 2.6876 29.1146Z" fill="white"/>
</svg>
