<svg width="35" height="37" viewBox="0 0 35 37" fill="none" xmlns="http://www.w3.org/2000/svg">
<path d="M23.7227 29.2368C23.7227 30.0593 23.5617 30.8738 23.249 31.6336C22.9362 32.3935 22.4778 33.084 21.9 33.6656C21.3221 34.2472 20.636 34.7085 19.881 35.0232C19.126 35.338 18.3167 35.5 17.4995 35.5C16.6822 35.5 15.873 35.338 15.118 35.0232C14.3629 34.7085 13.6769 34.2472 13.099 33.6656C12.5211 33.084 12.0627 32.3935 11.75 31.6336C11.4372 30.8738 11.2763 30.0593 11.2763 29.2368M30.3567 29.2368H4.64407C4.02206 29.2366 3.41409 29.0507 2.89702 28.7027C2.37995 28.3548 1.977 27.8603 1.73912 27.2819C1.50123 26.7035 1.43909 26.0671 1.56055 25.4531C1.68201 24.8392 1.98162 24.2752 2.42149 23.8326L3.49189 22.7536C4.49166 21.7467 5.0532 20.3815 5.05303 18.9581V14.0263C5.05303 10.7041 6.36435 7.51801 8.69851 5.16887C11.0327 2.81973 14.1985 1.5 17.4995 1.5C20.8005 1.5 23.9663 2.81973 26.3004 5.16887C28.6346 7.51801 29.9459 10.7041 29.9459 14.0263V18.9581C29.9462 20.3818 30.5084 21.747 31.5088 22.7536L32.581 23.8326C33.02 24.2756 33.3189 24.8394 33.4398 25.4531C33.5608 26.0668 33.4985 26.7027 33.2607 27.2808C33.023 27.8589 32.6205 28.3531 32.104 28.7012C31.5875 29.0494 30.9783 29.2357 30.3567 29.2368Z" stroke="white" stroke-width="3" stroke-linecap="round" stroke-linejoin="round"/>
</svg>
