<svg width="3" height="2" viewBox="0 0 3 2" fill="none" xmlns="http://www.w3.org/2000/svg">
<path fill-rule="evenodd" clip-rule="evenodd" d="M1.295 0.284738L1.265 0.28974L1.0875 0.377239L1.0375 0.387239L1.0025 0.377239L0.825 0.287241C0.798333 0.280575 0.778333 0.285571 0.764999 0.302238L0.755 0.327238L0.7125 1.39724L0.725 1.44724L0.75 1.47974L1.01 1.66474L1.0475 1.67474L1.0775 1.66474L1.3375 1.47974L1.3675 1.43974L1.3775 1.39724L1.335 0.329737C1.32833 0.30307 1.315 0.288071 1.295 0.284738ZM1.955 0.00224038L1.92 0.00723763L1.46 0.239739L1.435 0.264739L1.4275 0.292238L1.4725 1.36724L1.485 1.39724L1.505 1.41724L2.0075 1.64724C2.03917 1.65557 2.06333 1.64891 2.08 1.62724L2.09 1.59224L2.005 0.0572388C1.99667 0.0255721 1.98 0.00724038 1.955 0.00224038ZM0.167499 0.00723763C0.156482 0.000560999 0.143315 -0.00160318 0.130739 0.00119134C0.118164 0.00398586 0.107152 0.0115247 0.0999999 0.0222389L0.0849986 0.0572388L0 1.59224C0.00166667 1.62224 0.0158338 1.64224 0.0425005 1.65224L0.079999 1.64724L0.5825 1.41474L0.6075 1.39474L0.614998 1.36724L0.66 0.292238L0.652499 0.262241L0.627499 0.23724L0.167499 0.00723763Z" fill="white"/>
</svg>
