<svg width="59" height="59" viewBox="0 0 59 59" fill="none" xmlns="http://www.w3.org/2000/svg">
<path d="M29.5098 59C25.4323 59 21.5973 58.2264 18.0048 56.6793C14.4146 55.13 11.2909 53.0279 8.63367 50.3729C5.97648 47.7179 3.87324 44.5974 2.32394 41.0116C0.774648 37.4257 0 33.5918 0 29.5098C0 25.4279 0.774648 21.5929 2.32394 18.0048C3.87106 14.4146 5.96993 11.2908 8.62056 8.63367C11.2712 5.97648 14.3927 3.87324 17.9852 2.32394C21.5776 0.774648 25.4126 0 29.4902 0C33.5677 0 37.4027 0.774648 40.9952 2.32394C44.5854 3.87106 47.7091 5.97102 50.3663 8.62383C53.0235 11.2766 55.1268 14.3982 56.6761 17.9884C58.2253 21.5787 59 25.4126 59 29.4902C59 33.5677 58.2264 37.4027 56.6793 40.9952C55.1322 44.5876 53.0301 47.7113 50.3729 50.3663C47.7157 53.0213 44.5953 55.1246 41.0116 56.6761C37.4279 58.2275 33.5939 59.0022 29.5098 59Z" fill="#26526D"/>
</svg>
