<svg width="44" height="54" viewBox="0 0 44 54" fill="none" xmlns="http://www.w3.org/2000/svg">
<path fill-rule="evenodd" clip-rule="evenodd" d="M21.8751 0C18.7257 0 15.7052 1.25111 13.4782 3.47811C11.2513 5.7051 10.0001 8.72555 10.0001 11.875C10.0001 15.0244 11.2513 18.0449 13.4782 20.2719C15.7052 22.4989 18.7257 23.75 21.8751 23.75C25.0246 23.75 28.045 22.4989 30.272 20.2719C32.499 18.0449 33.7501 15.0244 33.7501 11.875C33.7501 8.72555 32.499 5.7051 30.272 3.47811C28.045 1.25111 25.0246 0 21.8751 0ZM13.7501 11.875C13.7501 9.72012 14.6062 7.65349 16.1299 6.12976C17.6536 4.60602 19.7203 3.75 21.8751 3.75C24.03 3.75 26.0966 4.60602 27.6204 6.12976C29.1441 7.65349 30.0001 9.72012 30.0001 11.875C30.0001 14.0299 29.1441 16.0965 27.6204 17.6202C26.0966 19.144 24.03 20 21.8751 20C19.7203 20 17.6536 19.144 16.1299 17.6202C14.6062 16.0965 13.7501 14.0299 13.7501 11.875ZM21.8751 27.5C16.0926 27.5 10.7626 28.815 6.81514 31.035C2.92514 33.225 0.000139755 36.54 0.000139755 40.625V40.88C-0.00236025 43.785 -0.00486046 47.43 3.19264 50.035C4.76514 51.315 6.96764 52.2275 9.94264 52.8275C12.9226 53.4325 16.8101 53.75 21.8751 53.75C26.9401 53.75 30.8251 53.4325 33.8101 52.8275C36.7851 52.2275 38.9851 51.315 40.5601 50.035C43.7576 47.43 43.7526 43.785 43.7501 40.88V40.625C43.7501 36.54 40.8251 33.225 36.9376 31.035C32.9876 28.815 27.6601 27.5 21.8751 27.5ZM3.75014 40.625C3.75014 38.4975 5.30514 36.1875 8.65264 34.305C11.9426 32.455 16.6126 31.25 21.8776 31.25C27.1376 31.25 31.8076 32.455 35.0976 34.305C38.4476 36.1875 40.0001 38.4975 40.0001 40.625C40.0001 43.895 39.9001 45.735 38.1901 47.125C37.2651 47.88 35.7151 48.6175 33.0651 49.1525C30.4226 49.6875 26.8101 50 21.8751 50C16.9401 50 13.3251 49.6875 10.6851 49.1525C8.03514 48.6175 6.48514 47.88 5.56014 47.1275C3.85014 45.735 3.75014 43.895 3.75014 40.625Z" fill="white"/>
</svg>
