<svg width="45" height="48" viewBox="0 0 45 48" fill="none" xmlns="http://www.w3.org/2000/svg">
<path fill-rule="evenodd" clip-rule="evenodd" d="M4.84541 17.5C4.84541 12.8587 6.68915 8.40752 9.97104 5.12563C13.2529 1.84374 17.7041 0 22.3454 0C26.9867 0 31.4379 1.84374 34.7198 5.12563C38.0017 8.40752 39.8454 12.8587 39.8454 17.5V26.91L44.4004 36.02C44.6101 36.4393 44.7091 36.9052 44.688 37.3736C44.667 37.8419 44.5265 38.2971 44.28 38.6959C44.0336 39.0946 43.6892 39.4238 43.2797 39.652C42.8703 39.8803 42.4092 40.0001 41.9404 40H32.0304C31.4743 42.1456 30.2215 44.0458 28.4686 45.4023C26.7156 46.7588 24.5619 47.4949 22.3454 47.4949C20.1289 47.4949 17.9752 46.7588 16.2222 45.4023C14.4693 44.0458 13.2165 42.1456 12.6604 40H2.75041C2.2816 40.0001 1.82056 39.8803 1.41107 39.652C1.00159 39.4238 0.657252 39.0946 0.41077 38.6959C0.164288 38.2971 0.0238443 37.8419 0.00277822 37.3736C-0.0182878 36.9052 0.0807231 36.4393 0.290407 36.02L4.84541 26.91V17.5ZM18.0154 40C18.4543 40.76 19.0854 41.3912 19.8455 41.83C20.6056 42.2688 21.4678 42.4998 22.3454 42.4998C23.223 42.4998 24.0852 42.2688 24.8453 41.83C25.6054 41.3912 26.2365 40.76 26.6754 40H18.0154ZM22.3454 5C19.0302 5 15.8508 6.31696 13.5066 8.66116C11.1624 11.0054 9.84541 14.1848 9.84541 17.5V26.91C9.84535 27.6858 9.66476 28.451 9.31791 29.145L6.39291 35H38.3004L35.3754 29.145C35.0277 28.4512 34.8462 27.686 34.8454 26.91V17.5C34.8454 14.1848 33.5284 11.0054 31.1842 8.66116C28.84 6.31696 25.6606 5 22.3454 5Z" fill="white"/>
</svg>
